<svg xmlns="http://www.w3.org/2000/svg" width="15.006" height="14.985" viewBox="0 0 15.006 14.985">
  <g id="Edit" transform="translate(0 0)">
    <path id="Path_32957" data-name="Path 32957" d="M9.2,5.42,2.018,12.6a1.661,1.661,0,0,0-.475.984L1.257,16.1a1.263,1.263,0,0,0,1.263,1.4h.147l2.512-.286a1.689,1.689,0,0,0,.984-.468l7.181-7.189Z" transform="translate(-1.25 -2.508)" fill="#ff7900"/>
    <path id="Path_32958" data-name="Path 32958" d="M19.534,3.553,17.713,1.731a1.64,1.64,0,0,0-2.324,0L13.7,3.42l4.145,4.146,1.689-1.689a1.64,1.64,0,0,0,0-2.324Z" transform="translate(-5.011 -1.248)" fill="#ff7900"/>
  </g>
</svg>
