<svg width="251" height="229" viewBox="0 0 251 229" fill="none" xmlns="http://www.w3.org/2000/svg">
<path d="M233.757 1.27211C230.478 1.27211 227.811 3.93897 227.811 7.21825C227.811 10.496 230.478 13.1644 233.757 13.1644C237.035 13.1644 239.703 10.496 239.703 7.21825C239.703 3.93897 237.035 1.27211 233.757 1.27211ZM233.757 14.4033C229.795 14.4033 226.572 11.1787 226.572 7.21825C226.572 3.25624 229.795 0.033201 233.757 0.033201C237.719 0.033201 240.942 3.25624 240.942 7.21825C240.942 11.1787 237.719 14.4033 233.757 14.4033Z" fill="black"/>
<path d="M24.1884 33.1906C24.6073 34.9905 23.487 36.7904 21.6861 37.2088C19.885 37.6285 18.0858 36.5079 17.6669 34.7067C17.248 32.9055 18.3683 31.1069 20.1693 30.6872C21.9701 30.2688 23.7695 31.3894 24.1884 33.1906Z" fill="#FF7900"/>
<path d="M6.96303 52.5276C6.67978 52.5471 6.39446 52.5899 6.10925 52.6558C3.19523 53.3331 1.37577 56.2559 2.05357 59.1702C2.38185 60.5809 3.24027 61.7805 4.47053 62.5469C5.70079 63.3121 7.15585 63.5537 8.56758 63.2255C11.4815 62.5469 13.3007 59.6254 12.6229 56.7111C12.0115 54.0824 9.57366 52.3446 6.96303 52.5276ZM7.78898 64.5911C6.40031 64.6887 5.02031 64.3482 3.8158 63.5989C2.3046 62.658 1.25019 61.1838 0.846859 59.4496C0.0144389 55.8715 2.2492 52.2811 5.82857 51.4488C9.40794 50.6165 12.997 52.851 13.8295 56.4304C14.662 60.0098 12.4275 63.5989 8.84815 64.4312C8.49644 64.513 8.1424 64.5667 7.78898 64.5911Z" fill="black"/>
<path d="M37.6966 219.693C36.158 219.693 34.9061 220.944 34.9061 222.483C34.9061 224.022 36.158 225.274 37.6966 225.274C39.2352 225.274 40.487 224.022 40.487 222.483C40.487 220.944 39.2352 219.693 37.6966 219.693ZM37.6966 226.265C35.6115 226.265 33.915 224.569 33.915 222.483C33.915 220.398 35.6115 218.702 37.6966 218.702C39.7818 218.702 41.4781 220.398 41.4781 222.483C41.4781 224.569 39.7818 226.265 37.6966 226.265Z" fill="black"/>
<path opacity="0.1" d="M53.1719 54.1057C36.0199 67.0255 21.6535 82.6794 16.351 101.672C9.66758 125.611 17.5363 151.614 33.0157 171.023C61.6239 206.893 116.713 220.535 160.75 202.655C205.194 184.61 230.774 136.446 236.541 92.5258C238.918 74.4154 236.328 55.2635 226.026 40.1552C213.556 21.8682 190.838 11.487 167.949 10.0425C145.06 8.59804 122.09 15.2703 101.537 25.4902C86.1973 33.1188 68.5627 42.511 53.1719 54.1057Z" fill="#FF7900"/>
<path d="M241.645 187.147C241.618 187.15 241.59 187.148 241.563 187.144C241.359 187.114 241.22 186.926 241.25 186.722C241.278 186.537 241.304 186.349 241.33 186.159C241.358 185.955 241.545 185.813 241.747 185.84C241.951 185.868 242.094 186.055 242.066 186.258C242.04 186.452 242.014 186.643 241.986 186.831C241.959 187.007 241.814 187.135 241.645 187.147ZM240.903 190.904C240.863 190.907 240.823 190.903 240.783 190.893C240.584 190.843 240.465 190.64 240.515 190.441C240.666 189.852 240.805 189.23 240.929 188.593C240.969 188.392 241.165 188.26 241.366 188.3C241.568 188.339 241.698 188.535 241.659 188.736C241.532 189.387 241.389 190.022 241.235 190.625C241.195 190.784 241.058 190.892 240.903 190.904ZM239.697 194.536C239.641 194.54 239.581 194.531 239.525 194.507C239.336 194.427 239.249 194.209 239.329 194.02C239.564 193.465 239.785 192.872 239.988 192.256C240.052 192.061 240.262 191.955 240.459 192.019C240.653 192.083 240.758 192.293 240.694 192.488C240.485 193.124 240.256 193.737 240.013 194.31C239.956 194.443 239.832 194.526 239.697 194.536ZM210.262 198.726C210.242 198.728 210.222 198.727 210.2 198.725C209.65 198.674 209.255 198.695 209.148 198.703L209.14 198.704C208.892 198.722 208.64 198.754 208.39 198.799C208.189 198.835 207.995 198.701 207.959 198.499C207.922 198.297 208.056 198.104 208.258 198.067C208.535 198.018 208.812 197.982 209.085 197.962L209.095 197.962C209.252 197.951 209.679 197.93 210.269 197.985C210.473 198.004 210.623 198.185 210.605 198.389C210.587 198.573 210.44 198.713 210.262 198.726ZM237.827 197.867C237.74 197.873 237.651 197.85 237.577 197.794C237.412 197.672 237.378 197.439 237.5 197.274C237.857 196.795 238.196 196.268 238.508 195.706C238.608 195.526 238.834 195.462 239.015 195.562C239.194 195.661 239.258 195.887 239.159 196.067C238.83 196.658 238.473 197.213 238.097 197.718C238.029 197.808 237.93 197.859 237.827 197.867ZM204.884 200.345C204.765 200.354 204.642 200.305 204.564 200.204C204.437 200.042 204.465 199.808 204.627 199.681C205.145 199.275 205.724 198.929 206.347 198.654C206.534 198.571 206.753 198.656 206.836 198.844C206.92 199.032 206.835 199.251 206.647 199.334C206.082 199.584 205.556 199.898 205.085 200.266C205.025 200.314 204.955 200.339 204.884 200.345ZM213.856 199.945C213.778 199.951 213.696 199.932 213.626 199.886C213.128 199.56 212.577 199.295 211.989 199.099C211.794 199.034 211.689 198.824 211.755 198.628C211.819 198.434 212.029 198.329 212.226 198.394C212.872 198.61 213.481 198.903 214.032 199.264C214.205 199.376 214.252 199.606 214.14 199.778C214.074 199.879 213.968 199.937 213.856 199.945ZM235.076 200.503C234.945 200.513 234.814 200.453 234.738 200.337C234.625 200.165 234.672 199.935 234.843 199.822C235.349 199.49 235.832 199.102 236.281 198.669C236.428 198.526 236.664 198.53 236.807 198.677C236.949 198.825 236.945 199.061 236.797 199.203C236.315 199.669 235.796 200.086 235.253 200.443C235.196 200.479 235.137 200.499 235.076 200.503ZM202.693 203.419C202.648 203.423 202.599 203.417 202.552 203.402C202.358 203.338 202.251 203.128 202.314 202.933C202.337 202.86 202.364 202.787 202.39 202.714C202.594 202.153 202.877 201.62 203.229 201.13C203.349 200.964 203.582 200.926 203.748 201.046C203.914 201.166 203.952 201.398 203.833 201.564C203.519 201.999 203.269 202.471 203.087 202.969C203.064 203.034 203.042 203.099 203.02 203.164C202.973 203.311 202.839 203.408 202.693 203.419ZM216.359 202.788C216.213 202.798 216.067 202.722 215.998 202.582C215.73 202.04 215.382 201.518 214.991 201.072C214.854 200.918 214.87 200.683 215.025 200.548C215.179 200.412 215.415 200.428 215.55 200.583C215.981 201.076 216.367 201.653 216.664 202.251C216.756 202.435 216.681 202.658 216.497 202.749C216.452 202.772 216.405 202.784 216.359 202.788ZM231.785 202.476C231.65 202.486 231.515 202.422 231.439 202.298C231.333 202.123 231.388 201.895 231.563 201.787C232.171 201.416 232.739 201.08 233.214 200.8C233.39 200.696 233.619 200.755 233.723 200.931C233.828 201.109 233.768 201.336 233.591 201.441C233.119 201.719 232.554 202.054 231.949 202.422C231.898 202.454 231.841 202.471 231.785 202.476ZM228.567 204.563C228.44 204.572 228.313 204.517 228.235 204.406C228.117 204.237 228.158 204.006 228.326 203.888C228.819 203.542 229.358 203.181 229.93 202.811C230.102 202.7 230.331 202.749 230.443 202.922C230.556 203.094 230.506 203.324 230.333 203.436C229.77 203.799 229.238 204.157 228.753 204.497C228.696 204.537 228.632 204.558 228.567 204.563ZM202.613 207.2C202.438 207.213 202.271 207.098 202.227 206.919C202.114 206.469 202.04 206.014 202.008 205.566C201.992 205.352 201.986 205.137 201.989 204.927C201.99 204.722 202.16 204.557 202.365 204.561C202.569 204.564 202.734 204.732 202.731 204.937C202.728 205.126 202.734 205.319 202.748 205.511C202.778 205.916 202.846 206.33 202.948 206.739C202.998 206.938 202.877 207.14 202.678 207.19C202.657 207.195 202.635 207.199 202.613 207.2ZM217.092 206.501C217.073 206.502 217.055 206.502 217.037 206.501C216.832 206.486 216.678 206.307 216.694 206.103C216.719 205.773 216.72 205.439 216.695 205.111C216.68 204.903 216.654 204.693 216.62 204.486C216.609 204.422 216.598 204.359 216.585 204.297C216.545 204.095 216.675 203.9 216.877 203.86C217.078 203.82 217.274 203.951 217.314 204.152C217.328 204.221 217.34 204.291 217.353 204.362C217.392 204.592 217.42 204.826 217.438 205.057C217.464 205.422 217.463 205.792 217.434 206.159C217.422 206.345 217.273 206.488 217.092 206.501ZM225.57 206.951C225.462 206.958 225.352 206.92 225.272 206.836C225.131 206.687 225.137 206.452 225.286 206.311C225.711 205.907 226.209 205.48 226.767 205.041C226.929 204.914 227.163 204.942 227.29 205.103C227.417 205.264 227.389 205.498 227.227 205.625C226.687 206.05 226.206 206.462 225.798 206.849C225.733 206.911 225.652 206.945 225.57 206.951ZM204.407 210.539C204.299 210.547 204.187 210.508 204.107 210.422C203.643 209.92 203.25 209.371 202.94 208.79C202.844 208.609 202.913 208.384 203.094 208.287C203.274 208.19 203.5 208.259 203.596 208.441C203.877 208.965 204.231 209.462 204.652 209.916C204.793 210.067 204.784 210.302 204.633 210.441C204.569 210.501 204.489 210.534 204.407 210.539ZM215.896 210.107C215.823 210.112 215.746 210.096 215.678 210.055C215.502 209.95 215.444 209.722 215.55 209.545C215.874 209.003 216.135 208.443 216.325 207.883C216.391 207.688 216.603 207.584 216.796 207.65C216.99 207.716 217.095 207.927 217.029 208.121C216.822 208.732 216.538 209.34 216.187 209.927C216.122 210.034 216.013 210.098 215.896 210.107ZM222.946 209.744C222.841 209.752 222.731 209.715 222.653 209.633C222.508 209.486 222.511 209.25 222.659 209.107C223.111 208.667 223.538 208.219 223.961 207.74C224.098 207.586 224.333 207.572 224.487 207.708C224.641 207.844 224.655 208.079 224.518 208.233C224.082 208.726 223.643 209.186 223.178 209.639C223.112 209.703 223.029 209.738 222.946 209.744ZM195.101 213.061C194.942 213.073 194.787 212.981 194.727 212.826C194.652 212.634 194.746 212.419 194.938 212.344C195.454 212.143 195.995 211.996 196.548 211.905C196.659 211.887 196.769 211.871 196.879 211.858C197.083 211.832 197.268 211.978 197.293 212.182C197.317 212.386 197.172 212.571 196.968 212.596C196.869 212.608 196.769 212.623 196.667 212.639C196.166 212.721 195.675 212.855 195.207 213.037C195.173 213.05 195.137 213.058 195.101 213.061ZM200.678 213.214C200.622 213.218 200.562 213.209 200.506 213.185C199.839 212.9 199.302 212.731 198.765 212.636C198.563 212.6 198.428 212.408 198.464 212.206C198.5 212.003 198.693 211.869 198.895 211.904C199.49 212.009 200.076 212.193 200.798 212.501C200.987 212.582 201.074 212.8 200.994 212.989C200.937 213.121 200.813 213.204 200.678 213.214ZM207.449 212.847C207.379 212.852 207.307 212.837 207.241 212.801C206.896 212.608 206.56 212.399 206.242 212.18C206.049 212.047 205.831 211.897 205.6 211.728C205.435 211.607 205.399 211.374 205.52 211.209C205.642 211.044 205.874 211.007 206.039 211.128C206.261 211.291 206.474 211.437 206.664 211.567C206.962 211.773 207.279 211.97 207.604 212.152C207.783 212.252 207.847 212.479 207.747 212.658C207.684 212.771 207.569 212.838 207.449 212.847ZM220.014 212.208C219.89 212.217 219.763 212.163 219.686 212.054C219.566 211.889 219.603 211.656 219.77 211.536C220.278 211.169 220.779 210.779 221.259 210.375C221.416 210.243 221.65 210.263 221.783 210.42C221.915 210.577 221.895 210.812 221.738 210.944C221.243 211.359 220.727 211.761 220.204 212.139C220.146 212.18 220.082 212.203 220.014 212.208ZM213.354 212.938C213.23 212.947 213.105 212.894 213.026 212.787C212.905 212.621 212.943 212.388 213.108 212.267C213.607 211.903 214.065 211.49 214.467 211.037C214.605 210.884 214.839 210.871 214.992 211.008C215.146 211.144 215.159 211.379 215.022 211.532C214.584 212.023 214.087 212.473 213.546 212.868C213.487 212.911 213.422 212.933 213.354 212.938ZM191.946 215.182C191.84 215.19 191.731 215.152 191.651 215.07C191.508 214.922 191.513 214.687 191.661 214.545C192.174 214.047 192.671 213.635 193.18 213.285C193.349 213.168 193.58 213.211 193.696 213.38C193.814 213.549 193.77 213.78 193.602 213.897C193.126 214.224 192.66 214.61 192.177 215.079C192.113 215.142 192.03 215.176 191.946 215.182ZM204.225 214.646C204.186 214.649 204.145 214.646 204.104 214.635C203.511 214.48 202.938 214.276 202.248 213.975C202.059 213.893 201.973 213.674 202.055 213.485C202.138 213.297 202.356 213.212 202.544 213.293C203.199 213.579 203.737 213.771 204.293 213.916C204.49 213.968 204.61 214.17 204.558 214.369C204.517 214.527 204.379 214.635 204.225 214.646ZM209.905 214.563C209.73 214.576 209.567 214.464 209.52 214.289C209.475 214.123 209.548 213.953 209.691 213.871C209.467 213.798 209.244 213.719 209.024 213.635C208.833 213.561 208.737 213.346 208.809 213.155C208.883 212.963 209.098 212.867 209.289 212.94C209.828 213.147 210.382 213.318 210.937 213.451C211.135 213.373 211.33 213.289 211.519 213.2C211.706 213.114 211.927 213.194 212.014 213.38C212.102 213.566 212.02 213.787 211.835 213.874C211.631 213.969 211.424 214.058 211.212 214.141C211.157 214.183 211.091 214.209 211.02 214.215C210.68 214.342 210.331 214.455 209.975 214.551C209.952 214.557 209.928 214.561 209.905 214.563ZM216.695 214.091C216.529 214.104 216.369 214.001 216.315 213.835C216.251 213.64 216.358 213.431 216.552 213.367C216.942 213.241 217.312 213.085 217.657 212.905C217.82 212.819 218.006 212.714 218.205 212.591C218.379 212.484 218.608 212.54 218.715 212.715C218.823 212.89 218.767 213.119 218.593 213.226C218.379 213.356 218.18 213.47 218.003 213.563C217.621 213.763 217.212 213.935 216.783 214.074C216.755 214.083 216.725 214.089 216.695 214.091ZM207.502 214.97C207.009 215.007 206.535 215.005 206.055 214.966C205.849 214.95 205.697 214.771 205.713 214.566C205.73 214.361 205.911 214.209 206.113 214.225C206.557 214.261 206.993 214.262 207.449 214.229C207.61 214.217 207.775 214.201 207.951 214.18C207.957 214.179 207.963 214.179 207.97 214.179C208.166 214.164 208.34 214.307 208.365 214.504C208.389 214.709 208.243 214.893 208.04 214.918C207.852 214.94 207.676 214.958 207.502 214.97ZM214.534 214.504C213.99 214.543 213.425 214.543 212.855 214.501C212.649 214.486 212.496 214.308 212.511 214.104C212.525 213.898 212.704 213.745 212.908 213.76C213.541 213.806 214.162 213.799 214.757 213.738C214.762 213.738 214.765 213.737 214.768 213.737C214.969 213.723 215.145 213.87 215.165 214.071C215.185 214.274 215.036 214.457 214.832 214.478C214.735 214.488 214.635 214.496 214.534 214.504ZM189.42 218.064C189.327 218.071 189.234 218.044 189.158 217.982C188.998 217.852 188.974 217.618 189.104 217.459L189.197 217.345C189.564 216.892 189.944 216.424 190.331 215.973C190.465 215.817 190.699 215.799 190.854 215.933C191.011 216.066 191.028 216.301 190.895 216.457C190.515 216.9 190.138 217.364 189.773 217.813L189.68 217.928C189.613 218.01 189.517 218.057 189.42 218.064ZM186.858 220.91C186.749 220.918 186.636 220.877 186.556 220.788C186.417 220.637 186.43 220.401 186.581 220.264C186.989 219.894 187.416 219.455 187.885 218.92C188.02 218.765 188.255 218.75 188.411 218.885C188.564 219.021 188.58 219.255 188.444 219.41C187.955 219.966 187.51 220.426 187.081 220.814C187.017 220.873 186.939 220.904 186.858 220.91ZM183.561 222.771C183.384 222.783 183.218 222.666 183.174 222.488C183.125 222.289 183.247 222.087 183.447 222.038C184.024 221.897 184.569 221.674 185.112 221.358C185.289 221.255 185.517 221.316 185.62 221.493C185.722 221.671 185.663 221.898 185.485 222.001C184.881 222.353 184.272 222.601 183.624 222.761C183.604 222.766 183.582 222.769 183.561 222.771ZM181.665 222.95C181.651 222.951 181.636 222.951 181.621 222.951C181.471 222.944 181.317 222.933 181.155 222.923C180.732 222.895 180.253 222.864 179.741 222.887C179.536 222.897 179.363 222.738 179.354 222.533C179.343 222.328 179.501 222.154 179.707 222.145C180.259 222.12 180.761 222.152 181.204 222.182C181.363 222.192 181.512 222.201 181.654 222.208C181.86 222.218 182.019 222.392 182.009 222.596C182.001 222.787 181.851 222.937 181.665 222.95ZM176.155 224.066C176.024 224.076 175.892 224.016 175.816 223.899C175.703 223.726 175.752 223.496 175.925 223.384C176.4 223.075 176.904 222.818 177.422 222.619C177.524 222.58 177.626 222.543 177.728 222.509C177.924 222.444 178.133 222.549 178.199 222.743C178.263 222.938 178.158 223.148 177.963 223.214C177.872 223.244 177.78 223.278 177.689 223.313C177.219 223.493 176.763 223.727 176.33 224.008C176.275 224.043 176.215 224.062 176.155 224.066ZM173.431 226.734C173.329 226.741 173.227 226.708 173.147 226.633C172.998 226.492 172.992 226.257 173.133 226.108C173.272 225.96 173.406 225.801 173.528 225.637C173.53 225.635 173.531 225.633 173.533 225.631C173.804 225.279 174.092 224.95 174.387 224.651C174.53 224.504 174.765 224.502 174.911 224.646C175.057 224.79 175.06 225.025 174.916 225.171C174.643 225.449 174.376 225.756 174.123 226.083C173.983 226.27 173.833 226.451 173.673 226.619C173.607 226.689 173.519 226.727 173.431 226.734ZM170.066 228.404C169.87 228.419 169.694 228.276 169.671 228.078C169.646 227.875 169.792 227.689 169.996 227.665C170.598 227.592 171.174 227.422 171.705 227.161C171.89 227.07 172.111 227.146 172.202 227.33C172.293 227.515 172.218 227.737 172.033 227.828C171.427 228.126 170.771 228.319 170.084 228.403C170.077 228.404 170.073 228.404 170.066 228.404Z" fill="black"/>
<path d="M240.836 165.866C246.291 165.71 250.84 170.006 250.996 175.462C251.152 180.917 246.856 185.466 241.401 185.622C235.946 185.778 231.396 181.482 231.24 176.027C231.084 170.572 235.381 166.022 240.836 165.866Z" fill="#EAEAEA"/>
<path d="M244.696 180.968L244.709 180.955L244.72 180.968L246.366 179.322L246.354 179.309L244.709 177.663L242.78 175.734L246.366 172.146L244.72 170.5L241.133 174.088L237.546 170.5L235.899 172.146L239.488 175.734L237.559 177.663L235.912 179.309L235.899 179.322L237.546 180.968L237.559 180.955L237.572 180.968L239.204 179.309L241.133 177.379L243.062 179.309L244.696 180.968Z" fill="black"/>
<path d="M105.216 167.02C111.736 167.02 117.024 171.928 117.024 177.982C117.024 184.037 111.736 188.944 105.216 188.944C98.6956 188.944 93.4092 184.037 93.4092 177.982C93.4092 171.928 98.6956 167.02 105.216 167.02Z" fill="#FF7900"/>
<path d="M164.253 167.02C170.774 167.02 176.058 171.928 176.058 177.982C176.058 184.037 170.774 188.944 164.252 188.944C157.731 188.944 152.445 184.037 152.445 177.982C152.445 171.928 157.731 167.02 164.253 167.02Z" fill="#FF7900"/>
<rect x="85.8447" y="57.4385" width="95.2835" height="60.8124" fill="white"/>
<path d="M39.1327 19.399C34.7384 21.418 32.9174 27.3166 35.2531 32.0672C35.8865 33.3341 36.8366 34.4821 37.7472 35.076C38.5389 35.5906 42.2602 37.095 46.0607 38.4014C49.8612 39.7474 53.0283 40.8559 53.0678 40.935C53.1074 40.9746 56.5912 58.829 60.748 80.6026C68.6657 121.854 69.6554 126.485 71.9911 132.582C77.8502 147.863 86.1241 156.612 98.159 160.215C100.336 160.888 103.266 160.927 135.966 161.086C160.669 161.165 171.833 161.086 172.862 160.769C174.802 160.215 176.584 158.671 177.652 156.652C178.998 154.118 178.88 149.724 177.454 147.23C176.861 146.24 175.673 144.973 174.881 144.459L173.377 143.548L138.737 143.35C107.7 143.152 103.899 143.033 102.197 142.44C97.4464 140.777 94.0814 138.045 91.4686 133.691C90.6768 132.384 90.0434 131.196 90.0434 130.999C90.0434 130.84 109.6 130.642 133.511 130.603L176.94 130.484L179.196 129.375C181.888 128.069 184.224 125.535 185.847 122.21C187.352 119.122 206.829 52.7719 206.829 50.7925C206.789 46.4774 205.166 43.6666 201.722 42.0435L199.505 41.0142L135.412 40.8163L71.3181 40.6183L69.4178 34.9176C67.3592 28.821 66.4883 27.1583 64.5485 25.8519C63.2025 24.9413 43.2499 18.6468 41.706 18.6468C41.1913 18.6468 40.0433 19.0031 39.1327 19.399ZM113.915 67.4988C116.805 68.6865 118.864 72.5265 118.349 75.6936C117.636 79.9692 112.886 82.9383 108.848 81.5923C106.987 80.9589 104.731 78.9794 104.058 77.3563C101.484 71.2597 107.819 64.9256 113.915 67.4988ZM156.869 67.7759C161.025 69.7949 162.253 75.6144 159.204 79.0982C156.908 81.711 153.622 82.582 150.693 81.3943C145.744 79.2962 144.279 73.0808 147.922 69.3595C150.376 66.8258 153.701 66.2716 156.869 67.7759ZM142.023 88.4807C148.199 90.3017 155.206 94.4585 159.561 98.8132C162.53 101.782 162.767 104.356 160.234 107.008C158.135 109.185 155.047 108.948 152.237 106.335C149.307 103.603 144.794 100.713 141.548 99.4466C131.572 95.6066 121.991 97.7443 112.53 105.82C110.115 107.919 108.333 108.631 106.71 108.235C104.097 107.602 102.712 105.702 102.712 102.772C102.712 101.07 102.87 100.753 104.929 98.7736C108.967 94.8148 115.657 90.658 120.724 88.9161C125 87.4909 127.375 87.1742 132.997 87.293C137.589 87.4118 139.133 87.6097 142.023 88.4807Z" fill="#FF7900"/>
</svg>
