<svg width="252" height="214" viewBox="0 0 252 214" fill="none" xmlns="http://www.w3.org/2000/svg">
<path d="M73.6925 213.699C73.2018 208.081 75.9844 202.294 80.678 199.169C85.3723 196.043 91.7847 195.708 96.7787 198.327C97.9908 195.083 99.2354 191.779 101.385 189.062C103.535 186.347 106.78 184.267 110.242 184.39V213.699H73.6925Z" fill="#EEEEEE"/>
<path d="M20.8697 135.409L9.26224 158.737L12.728 158.868L2.8927 177.404H8.05864L0 193.873H45.0454L35.1271 177.404L39.8797 177.198L30.3749 158.671L33.8875 158.465L20.8697 135.409Z" fill="#EEEEEE"/>
<path d="M129.473 143.167H205.185L219.334 123.08L234.161 143.734L251.587 143.456L232.804 118.161L148.385 118.512L129.473 143.167Z" fill="#E3E3E2"/>
<path d="M167.338 143.456V213.871H242.944V143.456H234.277L219.336 123.08L205.141 143.148L167.338 143.456Z" fill="#F8F8F9"/>
<path d="M195.701 213.871H178.018V183.342H195.701V213.871Z" fill="#E3E3E2"/>
<path d="M234.162 199.74H206.303V182.483H234.162V199.74Z" fill="#E3E3E2"/>
<path d="M214.664 199.9H214.025V182.483H214.664V199.9Z" fill="#EEEEEE"/>
<path d="M226.25 199.9H225.611V182.483H226.25V199.9Z" fill="#EEEEEE"/>
<path d="M225.931 192.037H214.346V191.398H225.931V192.037Z" fill="#EEEEEE"/>
<path d="M234.162 165.201H206.303V147.944H234.162V165.201Z" fill="#E3E3E2"/>
<path d="M214.664 165.362H214.025V147.944H214.664V165.362Z" fill="#EEEEEE"/>
<path d="M226.25 165.362H225.611V147.944H226.25V165.362Z" fill="#EEEEEE"/>
<path d="M225.931 157.498H214.346V156.859H225.931V157.498Z" fill="#EEEEEE"/>
<path d="M193.857 164.735H176.287V148.1H193.857V164.735Z" fill="#E3E3E2"/>
<path d="M167.334 213.871H136.646V143.456H167.334V213.871Z" fill="#E3E3E2"/>
<path d="M185.391 164.735H184.752V148.1H185.391V164.735Z" fill="#EEEEEE"/>
<path d="M193.857 157.146H176.287V156.507H193.857V157.146Z" fill="#EEEEEE"/>
<path d="M223.015 136.523C223.015 138.58 221.348 140.248 219.29 140.248C217.233 140.248 215.564 138.58 215.564 136.523C215.564 134.464 217.233 132.797 219.29 132.797C221.348 132.797 223.015 134.464 223.015 136.523Z" fill="#E3E3E2"/>
<path d="M192.713 131.953L197.416 126.154V112.205H187.57V132.061L192.713 131.953Z" fill="#F8F8F9"/>
<path d="M192.713 131.953V112.205H197.415V126.154L192.713 131.953Z" fill="#EEEEEE"/>
<path d="M198.081 112.205H186.475V110.152H198.081V112.205Z" fill="#EEEEEE"/>
<path d="M167.337 213.871H110.24V174.259H167.337V213.871Z" fill="#F8F8F9"/>
<path d="M145.987 213.871H110.24V174.259H145.987V213.871Z" fill="#E3E3E2"/>
<path d="M140.665 213.801H117.285V187.03H140.665V213.801Z" fill="#F8F8F9"/>
<path d="M164.192 190.757H149.131V186.921H164.192V190.757Z" fill="#EEEEEE"/>
<path d="M129.473 143.167V145.207H205.139V143.149L129.473 143.167Z" fill="#EEEEEE"/>
<path d="M205.141 145.207L219.292 125.342L219.335 123.08L205.187 143.167L205.141 145.207Z" fill="#EEEEEE"/>
<path d="M234.275 143.457V144.772H251.223V143.457H234.275Z" fill="#EEEEEE"/>
<path d="M189.669 181.042H183.416V178.664H189.669V181.042Z" fill="#E3E3E2"/>
<path d="M87.6112 115.611C62.8062 115.611 42.6975 95.5024 42.6975 70.6961C42.6975 45.8918 62.8062 25.7824 87.6112 25.7824C112.417 25.7824 132.525 45.8918 132.525 70.6961C132.525 95.5024 112.417 115.611 87.6112 115.611ZM135.041 28.5381C120.89 9.07344 100.311 -0.000809073 78.8424 -0.000170132C78.8424 -0.000170132 26.2613 -0.000797998 10.6897 47.07C4.95138 64.4179 6.22223 83.2564 13.1854 100.149C15.5936 105.991 18.7928 112.327 23.0091 118.417C36.5854 138.027 78.8424 191.579 78.8424 191.579H88.0271C99.822 175.198 129.516 120.779 138.408 103.332C149.576 81.4233 151.292 50.8921 135.041 28.5381Z" fill="#F03658"/>
<path d="M87.7986 191.579H78.8426C78.8426 191.579 36.5856 138.027 23.0093 118.417C18.793 112.327 15.5938 105.991 13.1856 100.149C9.19415 90.4656 7.07287 80.1422 7.07031 69.8272C7.06904 62.1484 8.24085 54.4734 10.6899 47.07C26.2615 -0.000797998 78.8426 -0.000170132 78.8426 -0.000170132C81.4737 -0.000170132 84.0908 0.136575 86.6849 0.41132C78.2317 0.811297 33.9966 4.93566 19.9367 47.4387C14.1983 64.7859 15.4692 83.6245 22.4324 100.518C24.8399 106.359 28.0397 112.695 32.2555 118.785C45.1736 137.444 84.0557 186.83 87.7986 191.579ZM87.5699 115.98C64.2824 115.98 45.2355 98.5527 42.982 75.7783C45.486 98.0121 64.221 115.333 87.0574 115.608H87.0581C87.0881 115.609 87.1175 115.609 87.1482 115.609C87.1501 115.609 87.1526 115.609 87.1545 115.609C87.1661 115.609 87.1795 115.609 87.1916 115.609C87.1954 115.609 87.1967 115.609 87.2006 115.609C87.2127 115.61 87.2229 115.61 87.2351 115.61C87.2383 115.61 87.2414 115.61 87.2446 115.61C87.26 115.61 87.2728 115.61 87.2875 115.61C87.2887 115.61 87.29 115.61 87.2913 115.61C87.3047 115.61 87.3162 115.61 87.3303 115.61C87.3341 115.61 87.3373 115.61 87.3411 115.61C87.3507 115.61 87.3635 115.61 87.3731 115.61C87.3775 115.61 87.3807 115.61 87.3858 115.61C87.398 115.61 87.4069 115.611 87.4191 115.611C87.4229 115.611 87.4248 115.611 87.4287 115.611C87.4421 115.611 87.4568 115.611 87.4702 115.611C87.474 115.611 87.4772 115.611 87.481 115.611C87.4919 115.611 87.5015 115.611 87.5117 115.611C87.5168 115.611 87.5219 115.611 87.5271 115.611C87.5379 115.611 87.5456 115.611 87.5564 115.611C87.5603 115.611 87.5654 115.611 87.5692 115.611C87.5826 115.611 87.598 115.611 87.6114 115.611C112.417 115.611 132.525 95.5024 132.525 70.6961C132.525 68.0337 132.294 65.4261 131.849 62.8902C132.335 65.5411 132.588 68.2732 132.586 71.0648C132.568 95.9496 112.417 115.925 87.6727 115.979C87.6395 115.98 87.6031 115.98 87.5699 115.98Z" fill="#B15400"/>
<path d="M87.6738 115.98C62.7583 116.035 42.6668 96.1373 42.7601 71.0653C42.8521 46.2603 62.8688 26.1516 87.6738 26.1516C112.479 26.1516 132.606 46.2603 132.588 71.0653C132.569 95.9501 112.418 115.925 87.6738 115.98ZM144.289 28.9073C130.137 9.44199 109.559 0.36838 88.0904 0.369019C88.0904 0.369019 35.5088 0.368391 19.9378 47.4392C14.1994 64.7864 15.4703 83.625 22.4335 100.519C24.841 106.36 28.0408 112.696 32.2565 118.785C45.8334 138.396 88.0904 191.947 88.0904 191.947C88.0904 191.947 136.911 124.782 147.656 103.7C158.824 81.7925 160.54 51.2607 144.289 28.9073Z" fill="#0063FF"/>
<path d="M87.6116 25.7831C68.0702 25.7831 51.452 38.2674 45.2754 55.6913C51.3204 42.3579 64.7375 33.0785 80.3302 33.0785C101.583 33.0785 118.811 50.3069 118.811 71.5594C118.811 92.8119 101.583 110.041 80.3302 110.041C67.9904 110.041 57.0153 104.225 49.9735 95.1932C57.9878 107.483 71.8464 115.612 87.6116 115.612C112.417 115.612 132.525 95.5031 132.525 70.6968C132.525 45.8925 112.417 25.7831 87.6116 25.7831Z" fill="#F03658"/>
<path d="M87.6116 115.612C87.5969 115.612 87.5841 115.612 87.5695 115.612C87.5656 115.612 87.5605 115.612 87.5567 115.612C87.5471 115.612 87.5369 115.612 87.5273 115.612C87.5222 115.612 87.5171 115.612 87.512 115.612C87.5017 115.612 87.4915 115.612 87.4813 115.612C87.4774 115.612 87.4742 115.612 87.4704 115.612C87.457 115.612 87.4423 115.612 87.4289 115.612C87.4251 115.612 87.4231 115.612 87.4193 115.612C87.4091 115.612 87.3963 115.611 87.3861 115.611C87.381 115.611 87.3778 115.611 87.3733 115.611C87.3624 115.611 87.3522 115.611 87.3413 115.611C87.3375 115.611 87.3343 115.611 87.3305 115.611C87.3177 115.611 87.3036 115.611 87.2915 115.611C87.2902 115.611 87.289 115.611 87.2877 115.611C87.2736 115.611 87.2596 115.611 87.2449 115.611C87.2417 115.611 87.2385 115.611 87.2353 115.611C87.2238 115.611 87.2123 115.611 87.2008 115.61C87.1969 115.61 87.1957 115.61 87.1918 115.61C87.1791 115.61 87.1669 115.61 87.1548 115.61C87.1529 115.61 87.1503 115.61 87.1484 115.61C87.1184 115.609 87.0883 115.609 87.0583 115.609H87.0577C71.5218 115.421 57.8938 107.338 49.9735 95.1932C57.0153 104.225 67.9904 110.041 80.3302 110.041C101.583 110.041 118.811 92.8119 118.811 71.5594C118.811 50.3069 101.583 33.0785 80.3302 33.0785C64.7375 33.0785 51.3204 42.3579 45.2754 55.6913C51.452 38.2674 68.0702 25.7831 87.6116 25.7831C112.417 25.7831 132.525 45.8925 132.525 70.6968C132.525 95.5031 112.417 115.612 87.6116 115.612Z" fill="#B15400"/>
<path d="M21.7014 169.595C21.7934 169.597 21.7224 179.497 21.5442 191.706C21.3653 203.92 21.1461 213.816 21.0541 213.815C20.9621 213.814 21.0324 203.915 21.2113 191.701C21.3902 179.492 21.6094 169.594 21.7014 169.595Z" fill="#1D2A30"/>
<path d="M27.2134 175.604C27.2473 175.629 26.9987 176.035 26.5195 176.631C26.0429 177.23 25.3222 178.004 24.5005 178.823C23.6788 179.642 22.9408 180.381 22.4233 180.935C21.9045 181.486 21.5914 181.837 21.5518 181.807C21.5186 181.782 21.7671 181.377 22.2457 180.78C22.7223 180.182 23.443 179.408 24.2647 178.588C25.087 177.769 25.825 177.029 26.3419 176.477C26.8607 175.926 27.1738 175.574 27.2134 175.604Z" fill="#1D2A30"/>
<path d="M21.5932 182.047C21.5364 182.119 20.3824 181.315 19.0151 180.249C17.6471 179.183 16.5846 178.26 16.6408 178.188C16.6977 178.116 17.8516 178.92 19.2196 179.986C20.5869 181.052 21.6495 181.975 21.5932 182.047Z" fill="#1D2A30"/>
<path d="M21.2847 193.515C21.2195 193.585 19.9768 192.5 18.4025 191.219C16.83 189.935 15.5176 188.937 15.5719 188.86C15.6218 188.786 17.0287 189.668 18.6127 190.961C20.1985 192.252 21.3467 193.452 21.2847 193.515Z" fill="#1D2A30"/>
<path d="M27.6942 186.426C27.7773 186.489 26.4592 188.199 24.6101 190.086C23.7475 190.987 22.9654 191.803 22.2767 192.523C21.685 193.151 21.3234 193.545 21.285 193.515C21.2013 193.452 22.5195 191.743 24.3692 189.856C25.2324 188.954 26.0138 188.138 26.7026 187.418C27.2943 186.791 27.6559 186.397 27.6942 186.426Z" fill="#1D2A30"/>
<line x1="-4.37114e-08" y1="213.5" x2="251.104" y2="213.5" stroke="#E6E6E6"/>
</svg>
