<svg width="196" height="251" viewBox="0 0 196 251" fill="none" xmlns="http://www.w3.org/2000/svg">
<path d="M176.286 113.905C176.286 113.905 188.096 113.225 188.096 101.91V24.2333C188.096 16.6684 190.84 9.36202 195.824 3.66817H135.19C123.336 3.66817 113.725 13.2775 113.725 25.1335V50.7875C113.725 50.7875 119.353 113.905 143.582 113.905H176.286Z" fill="#F3F2F7"/>
<path d="M145.531 50.7891H138.319C138.313 50.5972 138.317 50.3961 138.338 50.1904C138.442 49.1109 138.858 48.2695 139.584 47.6685C140.21 47.1554 140.95 46.8988 141.812 46.8988C141.958 46.8988 142.103 46.9057 142.256 46.9196C143.308 47.0213 144.142 47.435 144.757 48.1655C145.353 48.8751 145.612 49.7489 145.531 50.7891ZM145.744 44.7768C145.726 44.7768 145.709 44.7768 145.689 44.7745L139.79 44.2105C139.651 44.1966 139.54 44.1365 139.452 44.0302C139.364 43.9238 139.327 43.8036 139.339 43.6649L139.436 42.6664C139.538 41.6146 139.831 40.7293 140.321 40.0058C140.807 39.2846 141.366 38.709 141.995 38.2814C142.621 37.8515 143.437 37.3637 144.44 36.8182C145.555 36.2542 146.38 35.7457 146.911 35.2926C147.445 34.8419 147.744 34.2686 147.811 33.5775C147.882 32.8285 147.649 32.2137 147.108 31.7282C146.565 31.2428 145.813 30.9539 144.843 30.8614C144.641 30.8429 144.447 30.8314 144.258 30.8314C143.467 30.8314 142.802 31.0047 142.261 31.3468C141.59 31.7722 141.218 32.3732 141.144 33.1475L141.1 33.6052C141.075 33.8803 140.925 34.019 140.649 34.019C140.622 34.019 140.592 34.0167 140.559 34.0143L134.683 33.2007C134.545 33.1868 134.431 33.1198 134.348 32.9996C134.258 32.8794 134.223 32.7499 134.237 32.6113L134.251 32.4864C134.418 30.7435 135.007 29.241 136.024 27.9836C137.037 26.7261 138.377 25.7992 140.042 25.2028C141.29 24.7567 142.651 24.5325 144.119 24.5325C144.604 24.5325 145.101 24.5556 145.61 24.6065C147.63 24.7983 149.362 25.3138 150.806 26.1505C152.249 26.9873 153.317 28.0761 154.015 29.4144C154.71 30.7528 154.981 32.253 154.819 33.9126C154.701 35.1609 154.378 36.1987 153.853 37.0286C153.324 37.8561 152.723 38.5195 152.048 39.0142C151.37 39.5065 150.517 40.0266 149.489 40.5698C148.458 41.1153 147.683 41.6054 147.166 42.0446C146.648 42.4861 146.359 43.0524 146.292 43.7435L146.234 44.3237C146.223 44.4624 146.16 44.5757 146.056 44.6635C145.964 44.7398 145.86 44.7768 145.744 44.7768Z" fill="#DFDEEB"/>
<path d="M143.593 113.903H143.582C143.523 113.903 143.465 113.903 143.404 113.903V112.784L143.406 112.786L143.593 113.903Z" fill="#E5E3EF"/>
<path d="M118.948 50.79H113.725C113.725 50.7876 113.725 50.7876 113.725 50.7876V25.1336C113.725 24.5896 113.746 24.0504 113.785 23.5162C114.612 12.4164 123.879 3.66825 135.19 3.66825H140.413C128.557 3.66825 118.948 13.2775 118.948 25.1336V50.7876C118.948 50.7876 118.948 50.7876 118.948 50.79Z" fill="#E5E3EF"/>
<path d="M143.592 113.903H176.293C176.293 113.903 163.047 113.903 163.047 102.108V61.3566C163.047 58.1918 161.759 55.1092 159.343 53.0636C158.245 52.1327 156.873 51.3469 155.182 50.9854C149.387 49.7429 143.592 54.7109 143.592 54.7109L135.934 67.9569L143.592 113.903Z" fill="#CAC6DE"/>
<path d="M153.615 50.7906C153.615 50.7906 143.404 50.2386 143.404 62.242V236.215C143.404 244.023 137.349 250.651 129.548 250.983C129.275 250.994 128.993 251 128.71 251C117.325 251 25.2246 251 25.2246 251V78.971C25.2246 63.4044 37.8435 50.7862 53.4092 50.7862L153.615 50.7906Z" fill="#F3F2F7"/>
<path d="M153.611 50.7905C153.593 50.7884 153.524 50.7862 153.409 50.7862C153.388 50.7862 153.364 50.7862 153.34 50.7862H153.338C153.364 50.7862 153.388 50.7862 153.411 50.7862C153.528 50.7862 153.598 50.7884 153.611 50.7905Z" fill="#E5E3EF"/>
<path d="M153.194 50.7881C153.245 50.7881 153.295 50.7859 153.338 50.7859H153.34C153.295 50.7859 153.247 50.7881 153.194 50.7881Z" fill="#CAC6DE"/>
<path d="M153.611 50.7905H153.176C153.18 50.7905 153.187 50.7905 153.191 50.7883C153.191 50.7883 153.191 50.7883 153.193 50.7883C153.247 50.7883 153.295 50.7862 153.34 50.7862C153.364 50.7862 153.388 50.7862 153.41 50.7862C153.524 50.7862 153.594 50.7884 153.611 50.7905Z" fill="#E5E3EF"/>
<path d="M25.2246 78.9707C25.2246 63.4063 37.84 50.7902 53.4031 50.7859C37.8413 50.7902 25.2246 63.4085 25.2246 78.9707ZM59.5445 50.7881L53.4092 50.7859L59.5969 50.7881C59.5798 50.7881 59.5616 50.7881 59.5445 50.7881Z" fill="#F0EFF5"/>
<path d="M31.4272 251C27.5177 251 25.2246 251 25.2246 251V78.971C25.2246 63.4088 37.8413 50.7905 53.4031 50.7862C53.4051 50.7862 53.4075 50.7862 53.4092 50.7862L59.5445 50.7884C44.0093 50.823 31.4272 63.4261 31.4272 78.971V251Z" fill="#E5E3EF"/>
<path d="M129.331 251C129.331 251 119.533 249.205 119.533 240.376C119.533 231.615 119.533 226.112 119.533 226.112H0.732422V234.511C0.732422 243.616 8.11459 251 17.2212 251H129.331Z" fill="#CAC6DE"/>
<path d="M173.667 214.951C168.441 218.988 160.304 216.694 156.535 210.128L151.896 202.043L148.653 196.391L139.704 180.783L138.975 179.512L143.3 176.172L148.157 172.42L154.606 178.759L161.354 185.391L161.367 185.398L167.19 191.119L173.333 197.152C178.736 202.46 178.897 210.916 173.667 214.951Z" fill="black"/>
<path d="M171.921 216.024C171.921 216.022 171.921 216.022 171.923 216.022C172.531 215.734 173.116 215.379 173.668 214.951C174.742 214.124 175.588 213.111 176.207 211.976C175.588 213.111 174.742 214.124 173.668 214.953C173.118 215.381 172.529 215.737 171.921 216.024ZM172.129 195.97L167.191 191.121C167.191 191.119 167.191 191.119 167.191 191.119L161.368 185.398L161.359 185.393L161.355 185.391L154.608 178.759L154.047 178.207L154.034 178.196L149.432 173.671H149.434L172.129 195.97Z" fill="#E1E2EC"/>
<path d="M171.923 216.022C175.655 211.665 175.04 204.342 170.176 199.568L165.031 194.512C166.537 192.628 167.182 191.141 167.191 191.122L172.129 195.971L173.335 197.153C177.629 201.372 178.61 207.58 176.207 211.977C175.588 213.111 174.742 214.124 173.668 214.951C173.116 215.38 172.531 215.735 171.923 216.022ZM159.599 189.175L150.088 179.832C151.321 179.423 152.646 178.893 154.047 178.207L154.608 178.759L161.355 185.392C160.963 186.816 160.351 188.071 159.599 189.175ZM154.034 178.196L153.997 178.161L149.432 173.672C149.434 173.672 149.432 173.674 149.432 173.672L154.034 178.196Z" fill="#737272"/>
<path d="M151.897 202.042L148.654 196.39C148.654 196.39 155.843 194.685 159.599 189.175L165.03 194.511C162.794 197.306 158.662 200.975 151.897 202.042Z" fill="#424242"/>
<path d="M165.029 194.512L159.598 189.176C160.349 188.072 160.961 186.816 161.353 185.392L161.358 185.394L161.366 185.398L167.189 191.12V191.122C167.181 191.141 166.536 192.628 165.029 194.512Z" fill="#737272"/>
<path d="M142.766 181.103C140.824 181.103 139.731 180.791 139.705 180.783C142.179 179.575 144.472 178.083 146.55 176.358L150.087 179.832C147.048 180.839 144.55 181.103 142.766 181.103Z" fill="#424242"/>
<path d="M150.086 179.832L146.549 176.358C147.562 175.516 148.525 174.619 149.43 173.671L153.996 178.161L154.032 178.196L154.045 178.206C152.645 178.893 151.32 179.423 150.086 179.832Z" fill="#737272"/>
<path d="M129.005 179.482C112.631 181.93 97.3717 170.643 94.9223 154.269C92.4731 137.895 103.762 122.636 120.136 120.185C136.51 117.737 151.769 129.024 154.218 145.398C156.668 161.772 145.379 177.031 129.005 179.482ZM119.476 115.769C100.662 118.583 87.6927 136.115 90.5067 154.929C93.3208 173.743 110.854 186.712 129.665 183.898C148.479 181.083 161.448 163.551 158.634 144.738C155.82 125.926 138.287 112.955 119.476 115.769Z" fill="black"/>
<path d="M150.904 145.893C153.08 160.438 143.053 173.994 128.508 176.169C113.963 178.345 100.408 168.318 98.232 153.773C96.0569 139.228 106.084 125.673 120.631 123.497C135.175 121.321 148.729 131.348 150.904 145.893Z" fill="#EDEDF2"/>
<path d="M117.281 130.504C117.452 129.619 117.584 128.69 117.677 127.723C117.684 127.649 117.693 127.576 117.699 127.502C118.807 127.162 119.946 126.904 121.115 126.729C121.182 126.72 121.249 126.716 121.316 126.716C121.977 126.716 122.555 127.199 122.656 127.87C122.767 128.61 122.256 129.301 121.515 129.411C120.052 129.63 118.639 129.996 117.281 130.504Z" fill="#F8F8FB"/>
<path d="M102.804 154.444C102.144 154.444 101.566 153.962 101.466 153.291C101.224 151.676 101.153 150.05 101.248 148.439C102.267 147.898 103.228 147.363 104.133 146.837C103.843 148.831 103.845 150.87 104.146 152.888C104.257 153.628 103.748 154.319 103.008 154.429C102.938 154.44 102.871 154.444 102.804 154.444Z" fill="#F8F8FB"/>
<path d="M108.377 153.496C107.853 153.576 107.351 153.234 107.234 152.71C107.115 152.163 107.462 151.619 108.007 151.498C108.265 151.44 114.17 150.035 114.514 143.846C114.545 143.283 115.03 142.854 115.586 142.887C116.147 142.917 116.575 143.398 116.543 143.958C116.112 151.712 108.522 153.468 108.447 153.483C108.423 153.49 108.401 153.494 108.377 153.496Z" fill="#FF7900"/>
<path d="M136.914 140.428C132.169 141.138 128.511 137.956 128.463 137.915C128.045 137.54 128.006 136.897 128.381 136.479C128.753 136.06 129.394 136.023 129.812 136.393C130.006 136.564 134.617 140.521 139.828 137.164C140.302 136.856 140.93 136.995 141.233 137.467C141.538 137.941 141.402 138.568 140.93 138.872C139.544 139.763 138.189 140.237 136.914 140.428Z" fill="#FF7900"/>
<path d="M118.312 158.174C115.446 158.603 112.814 157.73 112.667 157.68C111.959 157.44 111.58 156.669 111.82 155.959C112.061 155.252 112.831 154.873 113.537 155.113C113.574 155.124 117.226 156.319 119.86 154.86C121.15 154.145 121.99 152.916 122.43 151.102C122.605 150.374 123.334 149.926 124.064 150.102C124.791 150.277 125.239 151.009 125.064 151.736C124.445 154.303 123.131 156.154 121.157 157.241C120.239 157.747 119.263 158.033 118.312 158.174Z" fill="#FF7900"/>
<path d="M134.769 151.139C131.903 151.567 129.271 150.695 129.126 150.645C128.416 150.405 128.037 149.634 128.277 148.924C128.518 148.219 129.288 147.838 129.994 148.078C130.048 148.095 133.693 149.279 136.317 147.825C137.607 147.11 138.447 145.881 138.887 144.067C139.062 143.339 139.791 142.891 140.521 143.066C141.248 143.242 141.696 143.974 141.521 144.701C140.902 147.268 139.588 149.119 137.614 150.206C136.696 150.712 135.72 150.998 134.769 151.139Z" fill="#FF7900"/>
<path d="M126.829 166.915C126.636 166.944 126.433 166.933 126.236 166.87C125.521 166.651 125.119 165.905 125.333 165.19C126.112 162.588 129.552 157.86 136.971 158.592C137.715 158.666 138.259 159.33 138.185 160.075C138.111 160.82 137.447 161.363 136.704 161.292C129.701 160.597 127.996 165.757 127.926 165.978C127.766 166.489 127.327 166.842 126.829 166.915Z" fill="#FF7900"/>
<path d="M77.4596 191.223C77.021 191.223 76.5736 191.199 76.1164 191.156C72.9035 190.849 70.3355 189.53 68.413 187.199C66.4887 184.867 65.6858 182.053 66.0021 178.754C66.3266 175.369 67.6308 172.734 69.914 170.849C71.8696 169.236 74.1963 168.431 76.8968 168.431C77.3501 168.431 77.8131 168.452 78.2874 168.498C81.5854 168.814 84.198 170.115 86.1261 172.403C88.0529 174.691 88.8547 177.527 88.5302 180.913C88.2226 184.125 86.9004 186.716 84.5662 188.682C82.5541 190.375 80.1854 191.223 77.4596 191.223ZM89.2197 161.785C89.1641 161.785 89.1076 161.781 89.0502 161.776L70.5591 160.003C70.1238 159.962 69.7694 159.776 69.496 159.443C69.2198 159.109 69.1048 158.726 69.1462 158.291L69.4458 155.167C69.7622 151.868 70.6851 149.089 72.2166 146.825C73.7475 144.562 75.4977 142.759 77.4659 141.415C79.4345 140.071 81.9899 138.542 85.1336 136.826C88.6315 135.059 91.2147 133.466 92.8848 132.05C94.5525 130.632 95.4916 128.84 95.7 126.669C95.9241 124.324 95.1896 122.393 93.4957 120.872C91.8011 119.352 89.4345 118.447 86.3969 118.155C85.7642 118.094 85.1535 118.064 84.5651 118.064C82.0839 118.064 79.9962 118.603 78.3004 119.679C76.2017 121.012 75.0353 122.893 74.8026 125.322L74.6651 126.755C74.5822 127.621 74.1105 128.052 73.2496 128.052C73.1591 128.052 73.0643 128.048 72.9652 128.039L54.5489 125.485C54.1136 125.443 53.7621 125.236 53.4923 124.859C53.22 124.482 53.1075 124.078 53.149 123.642L53.1867 123.251C53.7105 117.782 55.5612 113.076 58.7446 109.132C61.9253 105.188 66.1233 102.283 71.3412 100.417C75.2622 99.0143 79.5256 98.3129 84.1302 98.3129C85.6505 98.3129 87.2074 98.3887 88.8024 98.5424C95.1381 99.1485 100.568 100.766 105.093 103.389C109.617 106.013 112.968 109.422 115.152 113.618C115.618 114.514 116.022 115.436 116.367 116.38C99.2565 120.553 87.8494 137.17 90.5058 154.929C90.6489 155.886 90.8301 156.828 91.0474 157.752C91 158.01 90.9634 158.272 90.9376 158.54L90.7625 160.363C90.7212 160.798 90.5326 161.153 90.201 161.426C89.9105 161.666 89.5845 161.785 89.2197 161.785ZM94.7015 152.41C93.4143 137.646 103.164 124.166 117.49 120.703C117.665 121.8 117.771 122.924 117.804 124.075C105.935 127.177 97.7221 138.062 97.941 150.277C96.6844 151.024 95.6048 151.734 94.7015 152.41Z" fill="#E8E6F0"/>
<path d="M91.0483 157.752C90.831 156.828 90.6498 155.886 90.5067 154.929C87.8504 137.17 99.2574 120.553 116.367 116.38C116.876 117.769 117.248 119.211 117.491 120.703C103.165 124.166 93.4152 137.646 94.7024 152.409C94.3329 152.684 93.9926 152.955 93.6822 153.217C92.2608 154.425 91.3834 155.938 91.0483 157.752Z" fill="black"/>
<path d="M97.9418 150.277C97.7229 138.062 105.935 127.177 117.805 124.075C117.837 125.192 117.803 126.333 117.699 127.502C115.556 128.156 113.529 129.117 111.644 130.37C111.02 130.784 110.852 131.626 111.265 132.249C111.527 132.641 111.956 132.853 112.395 132.853C112.462 132.853 112.529 132.849 112.594 132.838C112.787 132.81 112.973 132.741 113.144 132.626C114.449 131.758 115.833 131.05 117.281 130.505C116.761 133.202 115.88 135.529 114.64 137.486C112.988 140.086 111.103 142.164 108.983 143.712C107.602 144.72 105.987 145.762 104.134 146.838C104.388 145.106 104.862 143.409 105.55 141.787C106.481 139.594 107.771 137.592 109.388 135.836C109.895 135.284 109.86 134.427 109.308 133.921C109.048 133.68 108.719 133.563 108.39 133.563C108.027 133.563 107.661 133.708 107.394 134.001C105.567 135.986 104.106 138.248 103.054 140.729C102.011 143.184 101.405 145.792 101.249 148.439C101.154 148.491 101.056 148.541 100.959 148.593C99.8591 149.173 98.8546 149.734 97.9418 150.277Z" fill="#E3E4ED"/>
<path d="M112.395 132.854C111.956 132.854 111.527 132.641 111.265 132.25C110.852 131.626 111.021 130.784 111.644 130.371C113.53 129.117 115.556 128.156 117.699 127.502C117.692 127.576 117.684 127.65 117.677 127.723C117.584 128.691 117.452 129.619 117.281 130.505C115.833 131.05 114.45 131.758 113.144 132.626C112.973 132.741 112.787 132.81 112.594 132.838C112.53 132.849 112.462 132.854 112.395 132.854Z" fill="#EDECF3"/>
<path d="M101.248 148.439C101.404 145.792 102.01 143.184 103.053 140.729C104.106 138.248 105.567 135.986 107.394 134.001C107.66 133.708 108.026 133.563 108.39 133.563C108.719 133.563 109.048 133.68 109.307 133.921C109.859 134.427 109.894 135.284 109.387 135.836C107.77 137.592 106.48 139.594 105.549 141.787C104.861 143.409 104.387 145.106 104.134 146.838C103.229 147.364 102.268 147.898 101.248 148.439Z" fill="#EDECF3"/>
<path d="M163.703 128.695C167.077 129.238 169.749 131.912 170.292 135.286C170.835 131.912 173.507 129.238 176.884 128.695C173.507 128.152 170.835 125.48 170.292 122.105C169.749 125.48 167.077 128.152 163.703 128.695ZM170.292 136.657C170.236 136.657 170.19 136.611 170.19 136.555C170.19 132.277 166.709 128.797 162.432 128.797C162.376 128.797 162.33 128.751 162.33 128.695C162.33 128.639 162.376 128.593 162.432 128.593C166.709 128.593 170.19 125.112 170.19 120.835C170.19 120.778 170.236 120.733 170.292 120.733C170.348 120.733 170.394 120.778 170.394 120.835C170.394 125.112 173.875 128.593 178.152 128.593C178.208 128.593 178.254 128.639 178.254 128.695C178.254 128.751 178.208 128.797 178.152 128.797C173.875 128.797 170.394 132.277 170.394 136.555C170.394 136.611 170.348 136.657 170.292 136.657Z" fill="#FF7900"/>
<path d="M170.291 118.386C170.235 118.386 170.189 118.341 170.189 118.284V116.332C170.189 116.278 170.235 116.232 170.291 116.232C170.347 116.232 170.393 116.278 170.393 116.332V118.284C170.393 118.341 170.347 118.386 170.291 118.386Z" fill="#FF7900"/>
<path d="M158.026 128.805C157.969 128.805 157.924 128.762 157.924 128.706C157.924 128.649 157.967 128.604 158.023 128.604L159.976 128.591C160.032 128.591 160.078 128.636 160.078 128.693C160.078 128.747 160.032 128.794 159.976 128.794L158.026 128.805Z" fill="#FF7900"/>
<path d="M170.473 140.997C170.417 140.997 170.372 140.954 170.372 140.898L170.348 138.947C170.346 138.891 170.391 138.845 170.447 138.843H170.449C170.504 138.843 170.549 138.889 170.549 138.943L170.573 140.895C170.575 140.952 170.53 140.997 170.473 140.997Z" fill="#FF7900"/>
<path d="M180.635 128.511C180.579 128.511 180.533 128.467 180.533 128.411C180.531 128.355 180.577 128.309 180.633 128.309L182.583 128.273C182.642 128.273 182.685 128.316 182.687 128.372C182.687 128.428 182.644 128.474 182.588 128.474L180.635 128.511Z" fill="#FF7900"/>
<path d="M9.20319 50.9085C14.3698 51.7405 18.4601 55.8313 19.2921 60.9987C20.124 55.8313 24.2151 51.7405 29.3823 50.9085C24.2151 50.0765 20.124 45.988 19.2921 40.8205C18.4601 45.988 14.3698 50.0765 9.20319 50.9085ZM19.2921 63.0986C19.2064 63.0986 19.137 63.0297 19.137 62.9451C19.137 56.394 13.8085 51.0642 7.25856 51.0642C7.17291 51.0642 7.10352 50.9953 7.10352 50.9085C7.10352 50.824 7.17291 50.755 7.25856 50.755C13.8085 50.755 19.137 45.4252 19.137 38.8763C19.137 38.7895 19.2064 38.7206 19.2921 38.7206C19.3775 38.7206 19.4471 38.7895 19.4471 38.8763C19.4471 45.4252 24.7765 50.755 31.3274 50.755C31.4128 50.755 31.4822 50.824 31.4822 50.9085C31.4822 50.9953 31.4128 51.0642 31.3274 51.0642C24.7765 51.0642 19.4471 56.394 19.4471 62.9451C19.4471 63.0297 19.3775 63.0986 19.2921 63.0986Z" fill="#FF7900"/>
<path d="M19.2918 35.1274C19.2059 35.1274 19.1367 35.0572 19.1367 34.9733V31.9834C19.1367 31.8996 19.2059 31.8293 19.2918 31.8293C19.3772 31.8293 19.4466 31.8996 19.4466 31.9834V34.9733C19.4466 35.0572 19.3772 35.1274 19.2918 35.1274Z" fill="#FF7900"/>
<path d="M0.508518 51.0786C0.423444 51.0786 0.353953 51.0094 0.35352 50.9249C0.352871 50.8383 0.421923 50.7691 0.50743 50.7691L3.49563 50.7496H3.49671C3.58179 50.7496 3.65105 50.8189 3.6517 50.9033C3.65213 50.9899 3.5833 51.0591 3.49758 51.0591L0.509385 51.0786H0.508518Z" fill="#FF7900"/>
<path d="M19.5649 69.7451C19.4802 69.7451 19.4112 69.6759 19.4101 69.5914L19.3731 66.6041C19.372 66.5175 19.4406 66.4482 19.5261 66.4461H19.5281C19.6127 66.4461 19.682 66.5153 19.683 66.5998L19.7201 69.5871C19.7211 69.6737 19.6525 69.743 19.5668 69.7451H19.5649Z" fill="#FF7900"/>
<path d="M35.1257 50.6284C35.0415 50.6284 34.9722 50.5613 34.9707 50.4769C34.9692 50.3903 35.0372 50.3189 35.1229 50.3189L38.1105 50.2626C38.1994 50.2647 38.2667 50.3297 38.2683 50.4141C38.27 50.5007 38.2018 50.57 38.1163 50.5721L35.1285 50.6284H35.1257Z" fill="#FF7900"/>
<path d="M24.0763 19.8818C29.2428 20.7149 33.3335 24.8056 34.1651 29.9733C34.997 24.8056 39.0882 20.7149 44.2555 19.8818C39.0882 19.0511 34.997 14.9604 34.1651 9.79508C33.3335 14.9604 29.2428 19.0511 24.0763 19.8818ZM34.1651 32.0742C34.0796 32.0742 34.0101 32.0042 34.0101 31.9173C34.0101 25.3683 28.6816 20.0388 22.1316 20.0388C22.0459 20.0388 21.9766 19.9687 21.9766 19.8818C21.9766 19.7973 22.0459 19.7272 22.1316 19.7272C28.6816 19.7272 34.0101 14.4002 34.0101 7.84874C34.0101 7.76422 34.0796 7.69418 34.1651 7.69418C34.2506 7.69418 34.3202 7.76422 34.3202 7.84874C34.3202 14.4002 39.6497 19.7272 46.2004 19.7272C46.2861 19.7272 46.3554 19.7973 46.3554 19.8818C46.3554 19.9687 46.2861 20.0388 46.2004 20.0388C39.6497 20.0388 34.3202 25.3683 34.3202 31.9173C34.3202 32.0042 34.2506 32.0742 34.1651 32.0742Z" fill="#FF7900"/>
<path d="M34.1648 4.1001C34.0791 4.1001 34.0098 4.0313 34.0098 3.94531V0.957458C34.0098 0.871459 34.0791 0.802665 34.1648 0.802665C34.2503 0.802665 34.3199 0.871459 34.3199 0.957458V3.94531C34.3199 4.0313 34.2503 4.1001 34.1648 4.1001Z" fill="#FF7900"/>
<path d="M15.3815 20.0542C15.2966 20.0542 15.2273 19.9863 15.2266 19.902C15.2261 19.8154 15.2949 19.7452 15.3808 19.7452L18.3687 19.7265H18.3698C18.4548 19.7265 18.5241 19.7943 18.5248 19.881C18.5253 19.9652 18.4564 20.0355 18.3708 20.0355L15.3827 20.0542H15.3815Z" fill="#FF7900"/>
<path d="M34.4383 38.7188C34.3532 38.7188 34.2843 38.6514 34.2831 38.5661L34.2461 35.5784C34.245 35.4931 34.3137 35.4213 34.3992 35.4213H34.4012C34.4861 35.4213 34.555 35.4886 34.5561 35.5739L34.5931 38.5616C34.5943 38.6469 34.5256 38.7188 34.4401 38.7188H34.4383Z" fill="#FF7900"/>
<path d="M49.9968 19.605C49.9126 19.605 49.8435 19.537 49.8418 19.4526C49.8402 19.3682 49.9086 19.2979 49.994 19.2956L52.9816 19.2393C53.0704 19.2417 53.138 19.305 53.1394 19.3917C53.141 19.4761 53.0728 19.5487 52.9872 19.5487L49.9996 19.605H49.9968Z" fill="#FF7900"/>
<path d="M183.602 120.776C185.395 121.064 186.815 122.484 187.105 124.276C187.393 122.484 188.813 121.064 190.605 120.776C188.813 120.486 187.393 119.068 187.105 117.276C186.815 119.068 185.395 120.486 183.602 120.776ZM187.105 125.006C187.075 125.006 187.051 124.982 187.051 124.952C187.051 122.679 185.2 120.83 182.929 120.83C182.899 120.83 182.875 120.806 182.875 120.776C182.875 120.746 182.899 120.722 182.929 120.722C185.2 120.722 187.051 118.873 187.051 116.6C187.051 116.57 187.075 116.546 187.105 116.546C187.133 116.546 187.157 116.57 187.157 116.6C187.157 118.873 189.008 120.722 191.281 120.722C191.311 120.722 191.335 120.746 191.335 120.776C191.335 120.806 191.311 120.83 191.281 120.83C189.008 120.83 187.157 122.679 187.157 124.952C187.157 124.982 187.133 125.006 187.105 125.006Z" fill="#FF7900"/>
<path d="M187.107 115.299C187.077 115.299 187.053 115.276 187.053 115.245V114.208C187.053 114.178 187.077 114.154 187.107 114.154C187.135 114.154 187.159 114.178 187.159 114.208V115.245C187.159 115.276 187.135 115.299 187.107 115.299Z" fill="#FF7900"/>
<path d="M180.587 120.835C180.557 120.835 180.533 120.811 180.533 120.781C180.533 120.753 180.557 120.727 180.585 120.727L181.622 120.72H181.624C181.652 120.72 181.676 120.744 181.676 120.774C181.678 120.805 181.655 120.828 181.624 120.828L180.587 120.835Z" fill="#FF7900"/>
<path d="M187.198 127.312C187.17 127.312 187.146 127.288 187.146 127.26L187.133 126.223C187.131 126.192 187.155 126.169 187.185 126.169H187.187C187.215 126.169 187.239 126.19 187.239 126.221L187.252 127.257C187.252 127.288 187.228 127.312 187.2 127.312H187.198Z" fill="#FF7900"/>
<path d="M192.601 120.679C192.571 120.679 192.547 120.655 192.547 120.625C192.547 120.596 192.569 120.57 192.599 120.57L193.636 120.551C193.666 120.551 193.69 120.575 193.69 120.605C193.692 120.633 193.668 120.659 193.638 120.659L192.601 120.679Z" fill="#FF7900"/>
</svg>
